<svg width="382" height="133" viewBox="0 0 382 133" fill="none" xmlns="http://www.w3.org/2000/svg">
<path d="M106.176 75.32C105.28 75.32 104.373 75.2133 103.456 75C102.539 74.7653 101.771 74.3813 101.152 73.848L102.592 70.552C102.976 71 103.403 71.3413 103.872 71.576C104.363 71.7893 104.96 71.896 105.664 71.896C106.325 71.896 106.859 71.7787 107.264 71.544C107.669 71.3093 107.968 70.8827 108.16 70.264C108.373 69.6453 108.48 68.76 108.48 67.608V51.48H112.032V68.504C112.032 70.8933 111.488 72.632 110.4 73.72C109.333 74.7867 107.925 75.32 106.176 75.32ZM123.518 75.32C122.195 75.32 120.969 75.0107 119.838 74.392C118.729 73.752 117.833 72.856 117.15 71.704C116.489 70.5307 116.158 69.1653 116.158 67.608C116.158 66.072 116.446 64.728 117.022 63.576C117.619 62.424 118.462 61.528 119.55 60.888C120.638 60.248 121.918 59.928 123.39 59.928C124.243 59.928 125.043 60.0773 125.79 60.376C126.537 60.6747 127.166 61.048 127.678 61.496C128.19 61.9227 128.531 62.3493 128.702 62.776L128.766 60.312H132.062V75H128.798L128.734 72.408C128.371 73.176 127.71 73.8587 126.75 74.456C125.79 75.032 124.713 75.32 123.518 75.32ZM124.094 72.44C125.31 72.44 126.334 72.024 127.166 71.192C127.998 70.3387 128.414 69.2293 128.414 67.864V67.64C128.414 66.7227 128.222 65.9013 127.838 65.176C127.454 64.4507 126.931 63.8853 126.27 63.48C125.609 63.0747 124.883 62.872 124.094 62.872C122.729 62.872 121.673 63.32 120.926 64.216C120.179 65.0907 119.806 66.232 119.806 67.64C119.806 69.0693 120.169 70.232 120.894 71.128C121.641 72.0027 122.707 72.44 124.094 72.44ZM134.373 60.312H138.31L141.478 66.936L142.502 69.592L143.526 66.936L146.662 60.312H150.502L142.79 75H142.118L134.373 60.312ZM159.206 75.32C157.883 75.32 156.656 75.0107 155.526 74.392C154.416 73.752 153.52 72.856 152.838 71.704C152.176 70.5307 151.846 69.1653 151.846 67.608C151.846 66.072 152.134 64.728 152.71 63.576C153.307 62.424 154.15 61.528 155.238 60.888C156.326 60.248 157.606 59.928 159.078 59.928C159.931 59.928 160.731 60.0773 161.478 60.376C162.224 60.6747 162.854 61.048 163.366 61.496C163.878 61.9227 164.219 62.3493 164.39 62.776L164.454 60.312H167.75V75H164.486L164.422 72.408C164.059 73.176 163.398 73.8587 162.438 74.456C161.478 75.032 160.4 75.32 159.206 75.32ZM159.782 72.44C160.998 72.44 162.022 72.024 162.854 71.192C163.686 70.3387 164.102 69.2293 164.102 67.864V67.64C164.102 66.7227 163.91 65.9013 163.526 65.176C163.142 64.4507 162.619 63.8853 161.958 63.48C161.296 63.0747 160.571 62.872 159.782 62.872C158.416 62.872 157.36 63.32 156.614 64.216C155.867 65.0907 155.494 66.232 155.494 67.64C155.494 69.0693 155.856 70.232 156.582 71.128C157.328 72.0027 158.395 72.44 159.782 72.44ZM178.029 75.32C176.749 75.32 175.48 75.096 174.221 74.648C172.962 74.2 172.056 73.6987 171.501 73.144L173.197 70.104C173.645 70.5093 174.338 70.936 175.277 71.384C176.237 71.8107 177.154 72.024 178.029 72.024C179.16 72.024 180.077 71.7573 180.781 71.224C181.506 70.6907 181.869 69.9547 181.869 69.016C181.869 68.2907 181.677 67.6613 181.293 67.128C180.909 66.5947 180.44 66.1573 179.885 65.816C179.33 65.4533 178.541 65.016 177.517 64.504C176.301 63.9067 175.469 63.4587 175.021 63.16C172.952 61.7733 171.917 59.8533 171.917 57.4C171.917 55.3733 172.589 53.8267 173.933 52.76C175.277 51.672 176.973 51.128 179.021 51.128C181.218 51.128 183.085 51.7573 184.621 53.016L182.925 55.928C182.52 55.5013 181.944 55.1387 181.197 54.84C180.472 54.52 179.693 54.36 178.861 54.36C177.794 54.36 176.952 54.6053 176.333 55.096C175.736 55.5653 175.437 56.2693 175.437 57.208C175.437 57.8693 175.629 58.4667 176.013 59C176.397 59.512 176.877 59.96 177.453 60.344C178.05 60.728 178.85 61.1973 179.853 61.752C180.813 62.2853 181.549 62.712 182.061 63.032C182.573 63.3307 183.053 63.6933 183.501 64.12C184.12 64.6747 184.621 65.336 185.005 66.104C185.389 66.872 185.581 67.7147 185.581 68.632C185.581 70.0613 185.25 71.2773 184.589 72.28C183.949 73.2827 183.053 74.04 181.901 74.552C180.77 75.064 179.48 75.32 178.029 75.32ZM196.058 75.32C194.607 75.32 193.295 75.0107 192.122 74.392C190.97 73.752 190.052 72.8453 189.37 71.672C188.687 70.4773 188.346 69.08 188.346 67.48C188.346 65.9653 188.655 64.6427 189.274 63.512C189.914 62.36 190.799 61.4747 191.93 60.856C193.082 60.2373 194.404 59.928 195.898 59.928C197.028 59.928 197.999 60.0773 198.81 60.376C199.642 60.6533 200.292 61.0053 200.762 61.432L199.226 64.216C198.33 63.32 197.316 62.872 196.186 62.872C194.82 62.872 193.775 63.288 193.05 64.12C192.346 64.952 191.994 66.0613 191.994 67.448C191.994 69.0267 192.356 70.2533 193.082 71.128C193.828 72.0027 194.863 72.44 196.186 72.44C196.847 72.44 197.487 72.344 198.106 72.152C198.746 71.96 199.236 71.736 199.578 71.48L200.826 73.912C200.356 74.2747 199.695 74.6053 198.842 74.904C198.01 75.1813 197.082 75.32 196.058 75.32ZM204.02 60.312H207.476V63.192C207.817 62.2107 208.372 61.4213 209.14 60.824C209.908 60.2267 210.782 59.928 211.764 59.928C212.446 59.928 212.916 59.992 213.172 60.12L212.692 63.608C212.5 63.48 212.084 63.416 211.444 63.416C210.441 63.416 209.524 63.736 208.692 64.376C207.881 65.016 207.476 66.04 207.476 67.448V75H204.02V60.312ZM215.872 60.312H219.456V75H215.872V60.312ZM217.632 57.56C216.97 57.56 216.416 57.336 215.968 56.888C215.52 56.44 215.296 55.8853 215.296 55.224C215.296 54.6267 215.52 54.1147 215.968 53.688C216.416 53.2613 216.97 53.048 217.632 53.048C218.272 53.048 218.816 53.2613 219.264 53.688C219.712 54.1147 219.936 54.6267 219.936 55.224C219.936 55.8853 219.712 56.44 219.264 56.888C218.837 57.336 218.293 57.56 217.632 57.56ZM224.305 60.312H227.633V63.032C228.806 60.9627 230.641 59.928 233.137 59.928C235.206 59.928 236.881 60.5893 238.161 61.912C239.441 63.2133 240.081 65.1013 240.081 67.576C240.081 69.112 239.761 70.4667 239.121 71.64C238.502 72.8133 237.649 73.72 236.561 74.36C235.494 75 234.299 75.32 232.977 75.32C231.739 75.32 230.662 75.1067 229.745 74.68C228.849 74.232 228.145 73.6027 227.633 72.792L227.665 82.776H224.305V60.312ZM232.177 72.408C233.563 72.408 234.63 71.9707 235.377 71.096C236.123 70.2 236.497 69.0587 236.497 67.672C236.497 66.2213 236.123 65.0693 235.377 64.216C234.651 63.3413 233.585 62.904 232.177 62.904C231.409 62.904 230.683 63.096 230.001 63.48C229.339 63.8427 228.806 64.376 228.401 65.08C228.017 65.7627 227.825 66.5627 227.825 67.48V67.704C227.825 68.6213 228.017 69.4427 228.401 70.168C228.806 70.872 229.339 71.4267 230.001 71.832C230.662 72.216 231.387 72.408 232.177 72.408ZM245.052 63.128H242.46V60.312H245.052V54.328L248.54 53.56V60.312H251.932V63.128H248.54V75H245.052V63.128Z" fill="#525252"/>
<path d="M149.976 103.616H143.96V100.48H159.608V103.616H153.528V124H149.976V103.616ZM166.768 124.32C165.445 124.32 164.219 124.011 163.088 123.392C161.979 122.752 161.083 121.856 160.4 120.704C159.739 119.531 159.408 118.165 159.408 116.608C159.408 115.072 159.696 113.728 160.272 112.576C160.869 111.424 161.712 110.528 162.8 109.888C163.888 109.248 165.168 108.928 166.64 108.928C167.493 108.928 168.293 109.077 169.04 109.376C169.787 109.675 170.416 110.048 170.928 110.496C171.44 110.923 171.781 111.349 171.952 111.776L172.016 109.312H175.312V124H172.048L171.984 121.408C171.621 122.176 170.96 122.859 170 123.456C169.04 124.032 167.963 124.32 166.768 124.32ZM167.344 121.44C168.56 121.44 169.584 121.024 170.416 120.192C171.248 119.339 171.664 118.229 171.664 116.864V116.64C171.664 115.723 171.472 114.901 171.088 114.176C170.704 113.451 170.181 112.885 169.52 112.48C168.859 112.075 168.133 111.872 167.344 111.872C165.979 111.872 164.923 112.32 164.176 113.216C163.429 114.091 163.056 115.232 163.056 116.64C163.056 118.069 163.419 119.232 164.144 120.128C164.891 121.003 165.957 121.44 167.344 121.44ZM180.216 109.312H183.8V124H180.216V109.312ZM181.976 106.56C181.314 106.56 180.76 106.336 180.312 105.888C179.864 105.44 179.64 104.885 179.64 104.224C179.64 103.627 179.864 103.115 180.312 102.688C180.76 102.261 181.314 102.048 181.976 102.048C182.616 102.048 183.16 102.261 183.608 102.688C184.056 103.115 184.28 103.627 184.28 104.224C184.28 104.885 184.056 105.44 183.608 105.888C183.181 106.336 182.637 106.56 181.976 106.56ZM188.873 100.48H192.297V124H188.873V100.48ZM206.107 115.84L201.755 124H201.147L194.971 109.312H198.683L201.851 117.856L206.043 109.312H206.171L210.395 117.792L213.563 109.312H217.211L211.067 124H210.459L206.107 115.84ZM219.841 109.312H223.425V124H219.841V109.312ZM221.601 106.56C220.939 106.56 220.385 106.336 219.937 105.888C219.489 105.44 219.265 104.885 219.265 104.224C219.265 103.627 219.489 103.115 219.937 102.688C220.385 102.261 220.939 102.048 221.601 102.048C222.241 102.048 222.785 102.261 223.233 102.688C223.681 103.115 223.905 103.627 223.905 104.224C223.905 104.885 223.681 105.44 223.233 105.888C222.806 106.336 222.262 106.56 221.601 106.56ZM228.21 109.312H231.602L231.634 112C232.039 111.104 232.679 110.368 233.554 109.792C234.428 109.216 235.452 108.928 236.626 108.928C238.14 108.928 239.303 109.248 240.114 109.888C240.924 110.507 241.468 111.381 241.746 112.512C242.023 113.643 242.162 115.115 242.162 116.928V124H238.706V117.024C238.706 115.168 238.524 113.835 238.162 113.024C237.799 112.192 237.052 111.776 235.922 111.776C235.282 111.776 234.631 111.979 233.97 112.384C233.308 112.768 232.754 113.333 232.306 114.08C231.879 114.827 231.666 115.701 231.666 116.704V124H228.21V109.312ZM253.112 124.32C251.789 124.32 250.562 124.011 249.432 123.392C248.322 122.752 247.426 121.856 246.744 120.704C246.082 119.531 245.752 118.165 245.752 116.608C245.752 114.283 246.402 112.427 247.704 111.04C249.005 109.632 250.765 108.928 252.984 108.928C254.221 108.928 255.352 109.237 256.376 109.856C257.4 110.453 258.093 111.179 258.456 112.032L258.296 109.536V100.48H261.688V124H258.392L258.328 121.408C257.965 122.176 257.304 122.859 256.344 123.456C255.384 124.032 254.306 124.32 253.112 124.32ZM253.688 121.408C254.904 121.408 255.928 120.992 256.76 120.16C257.592 119.307 258.008 118.197 258.008 116.832V116.608C258.008 115.691 257.816 114.869 257.432 114.144C257.048 113.419 256.525 112.853 255.864 112.448C255.202 112.043 254.477 111.84 253.688 111.84C252.322 111.84 251.266 112.288 250.52 113.184C249.773 114.059 249.4 115.2 249.4 116.608C249.4 118.037 249.762 119.2 250.488 120.096C251.234 120.971 252.301 121.408 253.688 121.408ZM277.184 124.224C274.752 124.224 272.64 123.68 270.848 122.592C269.077 121.504 267.723 120.053 266.784 118.24C265.845 116.405 265.376 114.389 265.376 112.192C265.376 109.867 265.877 107.787 266.88 105.952C267.904 104.117 269.333 102.688 271.168 101.664C273.003 100.619 275.083 100.096 277.408 100.096C278.453 100.096 279.424 100.213 280.32 100.448C281.237 100.661 281.995 100.917 282.592 101.216C283.189 101.493 283.584 101.728 283.776 101.92L282.208 105.12C280.907 103.968 279.211 103.392 277.12 103.392C275.648 103.392 274.315 103.755 273.12 104.48C271.925 105.205 270.987 106.24 270.304 107.584C269.621 108.928 269.28 110.485 269.28 112.256C269.28 113.877 269.579 115.349 270.176 116.672C270.795 117.995 271.691 119.04 272.864 119.808C274.037 120.576 275.435 120.96 277.056 120.96C278.933 120.96 280.747 120.427 282.496 119.36L283.552 122.4C283.083 122.827 282.219 123.243 280.96 123.648C279.723 124.032 278.464 124.224 277.184 124.224ZM292.685 124.32C291.405 124.32 290.136 124.096 288.877 123.648C287.619 123.2 286.712 122.699 286.157 122.144L287.853 119.104C288.301 119.509 288.995 119.936 289.933 120.384C290.893 120.811 291.811 121.024 292.685 121.024C293.816 121.024 294.733 120.757 295.437 120.224C296.163 119.691 296.525 118.955 296.525 118.016C296.525 117.291 296.333 116.661 295.949 116.128C295.565 115.595 295.096 115.157 294.541 114.816C293.987 114.453 293.197 114.016 292.173 113.504C290.957 112.907 290.125 112.459 289.677 112.16C287.608 110.773 286.573 108.853 286.573 106.4C286.573 104.373 287.245 102.827 288.589 101.76C289.933 100.672 291.629 100.128 293.677 100.128C295.875 100.128 297.741 100.757 299.277 102.016L297.581 104.928C297.176 104.501 296.6 104.139 295.853 103.84C295.128 103.52 294.349 103.36 293.517 103.36C292.451 103.36 291.608 103.605 290.989 104.096C290.392 104.565 290.093 105.269 290.093 106.208C290.093 106.869 290.285 107.467 290.669 108C291.053 108.512 291.533 108.96 292.109 109.344C292.707 109.728 293.507 110.197 294.509 110.752C295.469 111.285 296.205 111.712 296.717 112.032C297.229 112.331 297.709 112.693 298.157 113.12C298.776 113.675 299.277 114.336 299.661 115.104C300.045 115.872 300.237 116.715 300.237 117.632C300.237 119.061 299.907 120.277 299.245 121.28C298.605 122.283 297.709 123.04 296.557 123.552C295.427 124.064 294.136 124.32 292.685 124.32ZM309.498 124.32C308.218 124.32 306.948 124.096 305.69 123.648C304.431 123.2 303.524 122.699 302.97 122.144L304.666 119.104C305.114 119.509 305.807 119.936 306.746 120.384C307.706 120.811 308.623 121.024 309.498 121.024C310.628 121.024 311.546 120.757 312.25 120.224C312.975 119.691 313.338 118.955 313.338 118.016C313.338 117.291 313.146 116.661 312.762 116.128C312.378 115.595 311.908 115.157 311.354 114.816C310.799 114.453 310.01 114.016 308.986 113.504C307.77 112.907 306.938 112.459 306.49 112.16C304.42 110.773 303.386 108.853 303.386 106.4C303.386 104.373 304.058 102.827 305.402 101.76C306.746 100.672 308.442 100.128 310.49 100.128C312.687 100.128 314.554 100.757 316.09 102.016L314.394 104.928C313.988 104.501 313.412 104.139 312.666 103.84C311.94 103.52 311.162 103.36 310.33 103.36C309.263 103.36 308.42 103.605 307.802 104.096C307.204 104.565 306.906 105.269 306.906 106.208C306.906 106.869 307.098 107.467 307.482 108C307.866 108.512 308.346 108.96 308.922 109.344C309.519 109.728 310.319 110.197 311.322 110.752C312.282 111.285 313.018 111.712 313.53 112.032C314.042 112.331 314.522 112.693 314.97 113.12C315.588 113.675 316.09 114.336 316.474 115.104C316.858 115.872 317.05 116.715 317.05 117.632C317.05 119.061 316.719 120.277 316.058 121.28C315.418 122.283 314.522 123.04 313.37 123.552C312.239 124.064 310.948 124.32 309.498 124.32Z" fill="#525252"/>
<path d="M88.24 35L83.504 26.104C82.5227 26.1467 81.648 26.168 80.88 26.168H79.984V35H76.496V11.48H81.84C84.5493 11.48 86.7787 12.0453 88.528 13.176C90.2773 14.2853 91.152 16.0987 91.152 18.616C91.152 20.1947 90.7787 21.56 90.032 22.712C89.3067 23.8427 88.2187 24.7173 86.768 25.336L92.368 35H88.24ZM82.256 23.256C84.3467 23.256 85.776 22.808 86.544 21.912C87.3333 20.9947 87.728 19.9067 87.728 18.648C87.728 15.8533 85.8613 14.456 82.128 14.456H79.984V23.256H82.256ZM102.747 35.32C100.998 35.32 99.5366 34.9787 98.3633 34.296C97.1899 33.592 96.3259 32.664 95.7713 31.512C95.2166 30.3387 94.9393 29.0587 94.9393 27.672C94.9393 26.1147 95.2593 24.7493 95.8993 23.576C96.5606 22.4027 97.4673 21.5067 98.6193 20.888C99.7713 20.248 101.073 19.928 102.523 19.928C104.785 19.928 106.459 20.5573 107.547 21.816C108.657 23.0533 109.211 24.8027 109.211 27.064C109.211 27.64 109.179 28.2373 109.115 28.856H98.5553C98.7899 30.1573 99.2486 31.096 99.9313 31.672C100.635 32.248 101.606 32.536 102.843 32.536C103.867 32.536 104.71 32.4507 105.371 32.28C106.033 32.1093 106.641 31.8747 107.195 31.576L108.251 34.04C107.718 34.3813 106.993 34.68 106.075 34.936C105.158 35.192 104.049 35.32 102.747 35.32ZM105.851 26.456C105.873 25.1333 105.585 24.2053 104.987 23.672C104.39 23.1173 103.537 22.84 102.427 22.84C100.187 22.84 98.8966 24.0453 98.5553 26.456H105.851ZM119.331 35.32C118.008 35.32 116.781 35.0107 115.651 34.392C114.541 33.752 113.645 32.856 112.963 31.704C112.301 30.5307 111.971 29.1653 111.971 27.608C111.971 26.072 112.259 24.728 112.835 23.576C113.432 22.424 114.275 21.528 115.363 20.888C116.451 20.248 117.731 19.928 119.203 19.928C120.056 19.928 120.856 20.0773 121.603 20.376C122.349 20.6747 122.979 21.048 123.491 21.496C124.003 21.9227 124.344 22.3493 124.515 22.776L124.579 20.312H127.875V35H124.611L124.547 32.408C124.184 33.176 123.523 33.8587 122.563 34.456C121.603 35.032 120.525 35.32 119.331 35.32ZM119.907 32.44C121.123 32.44 122.147 32.024 122.979 31.192C123.811 30.3387 124.227 29.2293 124.227 27.864V27.64C124.227 26.7227 124.035 25.9013 123.651 25.176C123.267 24.4507 122.744 23.8853 122.083 23.48C121.421 23.0747 120.696 22.872 119.907 22.872C118.541 22.872 117.485 23.32 116.739 24.216C115.992 25.0907 115.619 26.232 115.619 27.64C115.619 29.0693 115.981 30.232 116.707 31.128C117.453 32.0027 118.52 32.44 119.907 32.44ZM139.37 35.32C137.919 35.32 136.607 35.0107 135.434 34.392C134.282 33.752 133.365 32.8453 132.682 31.672C131.999 30.4773 131.658 29.08 131.658 27.48C131.658 25.9653 131.967 24.6427 132.586 23.512C133.226 22.36 134.111 21.4747 135.242 20.856C136.394 20.2373 137.717 19.928 139.21 19.928C140.341 19.928 141.311 20.0773 142.122 20.376C142.954 20.6533 143.605 21.0053 144.074 21.432L142.538 24.216C141.642 23.32 140.629 22.872 139.498 22.872C138.133 22.872 137.087 23.288 136.362 24.12C135.658 24.952 135.306 26.0613 135.306 27.448C135.306 29.0267 135.669 30.2533 136.394 31.128C137.141 32.0027 138.175 32.44 139.498 32.44C140.159 32.44 140.799 32.344 141.418 32.152C142.058 31.96 142.549 31.736 142.89 31.48L144.138 33.912C143.669 34.2747 143.007 34.6053 142.154 34.904C141.322 35.1813 140.394 35.32 139.37 35.32ZM148.708 23.128H146.116V20.312H148.708V14.328L152.196 13.56V20.312H155.588V23.128H152.196V35H148.708V23.128ZM162.301 35.32C161.405 35.32 160.498 35.2133 159.581 35C158.664 34.7653 157.896 34.3813 157.277 33.848L158.717 30.552C159.101 31 159.528 31.3413 159.997 31.576C160.488 31.7893 161.085 31.896 161.789 31.896C162.45 31.896 162.984 31.7787 163.389 31.544C163.794 31.3093 164.093 30.8827 164.285 30.264C164.498 29.6453 164.605 28.76 164.605 27.608V11.48H168.157V28.504C168.157 30.8933 167.613 32.632 166.525 33.72C165.458 34.7867 164.05 35.32 162.301 35.32ZM178.779 35.32C177.499 35.32 176.23 35.096 174.971 34.648C173.712 34.2 172.806 33.6987 172.251 33.144L173.947 30.104C174.395 30.5093 175.088 30.936 176.027 31.384C176.987 31.8107 177.904 32.024 178.779 32.024C179.91 32.024 180.827 31.7573 181.531 31.224C182.256 30.6907 182.619 29.9547 182.619 29.016C182.619 28.2907 182.427 27.6613 182.043 27.128C181.659 26.5947 181.19 26.1573 180.635 25.816C180.08 25.4533 179.291 25.016 178.267 24.504C177.051 23.9067 176.219 23.4587 175.771 23.16C173.702 21.7733 172.667 19.8533 172.667 17.4C172.667 15.3733 173.339 13.8267 174.683 12.76C176.027 11.672 177.723 11.128 179.771 11.128C181.968 11.128 183.835 11.7573 185.371 13.016L183.675 15.928C183.27 15.5013 182.694 15.1387 181.947 14.84C181.222 14.52 180.443 14.36 179.611 14.36C178.544 14.36 177.702 14.6053 177.083 15.096C176.486 15.5653 176.187 16.2693 176.187 17.208C176.187 17.8693 176.379 18.4667 176.763 19C177.147 19.512 177.627 19.96 178.203 20.344C178.8 20.728 179.6 21.1973 180.603 21.752C181.563 22.2853 182.299 22.712 182.811 23.032C183.323 23.3307 183.803 23.6933 184.251 24.12C184.87 24.6747 185.371 25.336 185.755 26.104C186.139 26.872 186.331 27.7147 186.331 28.632C186.331 30.0613 186 31.2773 185.339 32.28C184.699 33.2827 183.803 34.04 182.651 34.552C181.52 35.064 180.23 35.32 178.779 35.32Z" fill="#525252"/>
<path d="M81.184 124.224C78.752 124.224 76.64 123.68 74.848 122.592C73.0773 121.504 71.7227 120.053 70.784 118.24C69.8453 116.405 69.376 114.389 69.376 112.192C69.376 109.867 69.8773 107.787 70.88 105.952C71.904 104.117 73.3333 102.688 75.168 101.664C77.0027 100.619 79.0827 100.096 81.408 100.096C82.4533 100.096 83.424 100.213 84.32 100.448C85.2373 100.661 85.9947 100.917 86.592 101.216C87.1893 101.493 87.584 101.728 87.776 101.92L86.208 105.12C84.9067 103.968 83.2107 103.392 81.12 103.392C79.648 103.392 78.3147 103.755 77.12 104.48C75.9253 105.205 74.9867 106.24 74.304 107.584C73.6213 108.928 73.28 110.485 73.28 112.256C73.28 113.877 73.5787 115.349 74.176 116.672C74.7947 117.995 75.6907 119.04 76.864 119.808C78.0373 120.576 79.4347 120.96 81.056 120.96C82.9333 120.96 84.7467 120.427 86.496 119.36L87.552 122.4C87.0827 122.827 86.2187 123.243 84.96 123.648C83.7227 124.032 82.464 124.224 81.184 124.224ZM96.6853 124.32C95.4053 124.32 94.1359 124.096 92.8773 123.648C91.6186 123.2 90.7119 122.699 90.1573 122.144L91.8533 119.104C92.3013 119.509 92.9946 119.936 93.9333 120.384C94.8933 120.811 95.8106 121.024 96.6853 121.024C97.8159 121.024 98.7333 120.757 99.4373 120.224C100.163 119.691 100.525 118.955 100.525 118.016C100.525 117.291 100.333 116.661 99.9493 116.128C99.5653 115.595 99.0959 115.157 98.5413 114.816C97.9866 114.453 97.1973 114.016 96.1733 113.504C94.9573 112.907 94.1253 112.459 93.6773 112.16C91.6079 110.773 90.5733 108.853 90.5733 106.4C90.5733 104.373 91.2453 102.827 92.5893 101.76C93.9333 100.672 95.6293 100.128 97.6773 100.128C99.8746 100.128 101.741 100.757 103.277 102.016L101.581 104.928C101.176 104.501 100.6 104.139 99.8533 103.84C99.1279 103.52 98.3493 103.36 97.5173 103.36C96.4506 103.36 95.6079 103.605 94.9893 104.096C94.3919 104.565 94.0933 105.269 94.0933 106.208C94.0933 106.869 94.2853 107.467 94.6693 108C95.0533 108.512 95.5333 108.96 96.1093 109.344C96.7066 109.728 97.5066 110.197 98.5093 110.752C99.4693 111.285 100.205 111.712 100.717 112.032C101.229 112.331 101.709 112.693 102.157 113.12C102.776 113.675 103.277 114.336 103.661 115.104C104.045 115.872 104.237 116.715 104.237 117.632C104.237 119.061 103.907 120.277 103.245 121.28C102.605 122.283 101.709 123.04 100.557 123.552C99.4266 124.064 98.1359 124.32 96.6853 124.32ZM113.498 124.32C112.218 124.32 110.948 124.096 109.69 123.648C108.431 123.2 107.524 122.699 106.97 122.144L108.666 119.104C109.114 119.509 109.807 119.936 110.746 120.384C111.706 120.811 112.623 121.024 113.498 121.024C114.628 121.024 115.546 120.757 116.25 120.224C116.975 119.691 117.338 118.955 117.338 118.016C117.338 117.291 117.146 116.661 116.762 116.128C116.378 115.595 115.908 115.157 115.354 114.816C114.799 114.453 114.01 114.016 112.986 113.504C111.77 112.907 110.938 112.459 110.49 112.16C108.42 110.773 107.386 108.853 107.386 106.4C107.386 104.373 108.058 102.827 109.402 101.76C110.746 100.672 112.442 100.128 114.49 100.128C116.687 100.128 118.554 100.757 120.09 102.016L118.394 104.928C117.988 104.501 117.412 104.139 116.666 103.84C115.94 103.52 115.162 103.36 114.33 103.36C113.263 103.36 112.42 103.605 111.802 104.096C111.204 104.565 110.906 105.269 110.906 106.208C110.906 106.869 111.098 107.467 111.482 108C111.866 108.512 112.346 108.96 112.922 109.344C113.519 109.728 114.319 110.197 115.322 110.752C116.282 111.285 117.018 111.712 117.53 112.032C118.042 112.331 118.522 112.693 118.97 113.12C119.588 113.675 120.09 114.336 120.474 115.104C120.858 115.872 121.05 116.715 121.05 117.632C121.05 119.061 120.719 120.277 120.058 121.28C119.418 122.283 118.522 123.04 117.37 123.552C116.239 124.064 114.948 124.32 113.498 124.32Z" fill="#525252"/>
<path d="M4.488 59.576L4.56 61.496V71H1.872V53.336H2.208L12.576 64.904L12.48 62.888V53.36H15.168V71H14.808L4.488 59.576ZM23.9511 71.24C22.6391 71.24 21.5431 70.984 20.6631 70.472C19.7831 69.944 19.1351 69.248 18.7191 68.384C18.3031 67.504 18.0951 66.544 18.0951 65.504C18.0951 64.336 18.3351 63.312 18.8151 62.432C19.3111 61.552 19.9911 60.88 20.8551 60.416C21.7191 59.936 22.6951 59.696 23.7831 59.696C25.4791 59.696 26.7351 60.168 27.5511 61.112C28.3831 62.04 28.7991 63.352 28.7991 65.048C28.7991 65.48 28.7751 65.928 28.7271 66.392H20.8071C20.9831 67.368 21.3271 68.072 21.8391 68.504C22.3671 68.936 23.0951 69.152 24.0231 69.152C24.7911 69.152 25.4231 69.088 25.9191 68.96C26.4151 68.832 26.8711 68.656 27.2871 68.432L28.0791 70.28C27.6791 70.536 27.1351 70.76 26.4471 70.952C25.7591 71.144 24.9271 71.24 23.9511 71.24ZM26.2791 64.592C26.2951 63.6 26.0791 62.904 25.6311 62.504C25.1831 62.088 24.5431 61.88 23.7111 61.88C22.0311 61.88 21.0631 62.784 20.8071 64.592H26.2791ZM34.2045 65.288L30.3405 59.984H33.4125L35.6685 63.392L37.8045 59.984H40.9485L37.0605 65.144L41.2845 71H38.3085L35.6925 67.112L33.1965 71H30.0765L34.2045 65.288ZM44.2421 62.096H42.2981V59.984H44.2421V55.496L46.8581 54.92V59.984H49.4021V62.096H46.8581V71H44.2421V62.096ZM54.4367 71.24C53.7647 71.24 53.0847 71.16 52.3967 71C51.7087 70.824 51.1327 70.536 50.6687 70.136L51.7487 67.664C52.0367 68 52.3567 68.256 52.7087 68.432C53.0767 68.592 53.5247 68.672 54.0527 68.672C54.5487 68.672 54.9487 68.584 55.2527 68.408C55.5567 68.232 55.7807 67.912 55.9247 67.448C56.0847 66.984 56.1647 66.32 56.1647 65.456V53.36H58.8287V66.128C58.8287 67.92 58.4207 69.224 57.6047 70.04C56.8047 70.84 55.7487 71.24 54.4367 71.24ZM66.7952 71.24C65.8352 71.24 64.8832 71.072 63.9392 70.736C62.9952 70.4 62.3152 70.024 61.8992 69.608L63.1712 67.328C63.5072 67.632 64.0272 67.952 64.7312 68.288C65.4512 68.608 66.1392 68.768 66.7952 68.768C67.6432 68.768 68.3312 68.568 68.8592 68.168C69.4032 67.768 69.6752 67.216 69.6752 66.512C69.6752 65.968 69.5312 65.496 69.2432 65.096C68.9552 64.696 68.6032 64.368 68.1872 64.112C67.7712 63.84 67.1792 63.512 66.4112 63.128C65.4992 62.68 64.8752 62.344 64.5392 62.12C62.9872 61.08 62.2112 59.64 62.2112 57.8C62.2112 56.28 62.7152 55.12 63.7232 54.32C64.7312 53.504 66.0032 53.096 67.5392 53.096C69.1872 53.096 70.5872 53.568 71.7392 54.512L70.4672 56.696C70.1632 56.376 69.7312 56.104 69.1712 55.88C68.6272 55.64 68.0432 55.52 67.4192 55.52C66.6192 55.52 65.9872 55.704 65.5232 56.072C65.0752 56.424 64.8512 56.952 64.8512 57.656C64.8512 58.152 64.9952 58.6 65.2832 59C65.5712 59.384 65.9312 59.72 66.3632 60.008C66.8112 60.296 67.4112 60.648 68.1632 61.064C68.8832 61.464 69.4352 61.784 69.8192 62.024C70.2032 62.248 70.5632 62.52 70.8992 62.84C71.3632 63.256 71.7392 63.752 72.0272 64.328C72.3152 64.904 72.4592 65.536 72.4592 66.224C72.4592 67.296 72.2112 68.208 71.7152 68.96C71.2352 69.712 70.5632 70.28 69.6992 70.664C68.8512 71.048 67.8832 71.24 66.7952 71.24Z" fill="#525252"/>
<path d="M212.848 15.36H221.128V17.688H215.512V22.68H219.88V25.032H215.512V33H212.848V15.36ZM223.63 21.984H226.318V33H223.63V21.984ZM224.95 19.92C224.454 19.92 224.038 19.752 223.702 19.416C223.366 19.08 223.198 18.664 223.198 18.168C223.198 17.72 223.366 17.336 223.702 17.016C224.038 16.696 224.454 16.536 224.95 16.536C225.43 16.536 225.838 16.696 226.174 17.016C226.51 17.336 226.678 17.72 226.678 18.168C226.678 18.664 226.51 19.08 226.174 19.416C225.854 19.752 225.446 19.92 224.95 19.92ZM235.259 38.76C234.443 38.76 233.635 38.648 232.835 38.424C232.051 38.2 231.491 37.992 231.155 37.8L231.731 35.4C232.787 36.088 233.939 36.432 235.187 36.432C236.147 36.432 236.955 36.2 237.611 35.736C238.267 35.272 238.603 34.368 238.619 33.024V31.056C238.283 31.68 237.739 32.2 236.987 32.616C236.235 33.032 235.403 33.24 234.491 33.24C233.531 33.24 232.651 33.008 231.851 32.544C231.051 32.064 230.419 31.384 229.955 30.504C229.491 29.624 229.259 28.6 229.259 27.432C229.259 26.312 229.475 25.32 229.907 24.456C230.355 23.576 230.987 22.896 231.803 22.416C232.619 21.936 233.571 21.696 234.659 21.696C235.299 21.696 235.899 21.808 236.459 22.032C237.019 22.256 237.491 22.536 237.875 22.872C238.275 23.192 238.539 23.512 238.667 23.832L238.715 21.984H241.163V32.928C241.163 34.8 240.683 36.24 239.723 37.248C238.763 38.256 237.275 38.76 235.259 38.76ZM235.211 31.056C236.123 31.056 236.891 30.744 237.515 30.12C238.139 29.48 238.451 28.648 238.451 27.624V27.456C238.451 26.768 238.307 26.152 238.019 25.608C237.731 25.064 237.339 24.64 236.843 24.336C236.347 24.032 235.803 23.88 235.211 23.88C234.187 23.88 233.395 24.216 232.835 24.888C232.275 25.544 231.995 26.4 231.995 27.456C231.995 28.528 232.267 29.4 232.811 30.072C233.371 30.728 234.171 31.056 235.211 31.056ZM244.485 21.984H247.077V23.976C247.429 23.224 247.941 22.656 248.613 22.272C249.301 21.888 250.085 21.696 250.965 21.696C252.933 21.712 254.141 22.392 254.589 23.736C254.941 23.112 255.469 22.616 256.173 22.248C256.877 21.88 257.621 21.696 258.405 21.696C259.557 21.696 260.429 21.92 261.021 22.368C261.613 22.8 262.005 23.424 262.197 24.24C262.405 25.04 262.509 26.12 262.509 27.48V33H259.893V27.456C259.893 26.16 259.757 25.232 259.485 24.672C259.229 24.112 258.725 23.832 257.973 23.832C256.965 23.832 256.197 24.176 255.669 24.864C255.157 25.536 254.901 26.424 254.901 27.528V33H252.309V27.072C252.309 26.224 252.277 25.592 252.213 25.176C252.149 24.76 251.973 24.432 251.685 24.192C251.397 23.952 250.933 23.832 250.293 23.832C249.733 23.832 249.205 24 248.709 24.336C248.229 24.672 247.837 25.128 247.533 25.704C247.245 26.264 247.101 26.872 247.101 27.528V33H244.485V21.984ZM270.685 33.24C269.693 33.24 268.773 33.008 267.925 32.544C267.093 32.064 266.421 31.392 265.909 30.528C265.413 29.648 265.165 28.624 265.165 27.456C265.165 26.304 265.381 25.296 265.813 24.432C266.261 23.568 266.893 22.896 267.709 22.416C268.525 21.936 269.485 21.696 270.589 21.696C271.229 21.696 271.829 21.808 272.389 22.032C272.949 22.256 273.421 22.536 273.805 22.872C274.189 23.192 274.445 23.512 274.573 23.832L274.621 21.984H277.093V33H274.645L274.597 31.056C274.325 31.632 273.829 32.144 273.109 32.592C272.389 33.024 271.581 33.24 270.685 33.24ZM271.117 31.08C272.029 31.08 272.797 30.768 273.421 30.144C274.045 29.504 274.357 28.672 274.357 27.648V27.48C274.357 26.792 274.213 26.176 273.925 25.632C273.637 25.088 273.245 24.664 272.749 24.36C272.253 24.056 271.709 23.904 271.117 23.904C270.093 23.904 269.301 24.24 268.741 24.912C268.181 25.568 267.901 26.424 267.901 27.48C267.901 28.552 268.173 29.424 268.717 30.096C269.277 30.752 270.077 31.08 271.117 31.08Z" fill="#525252"/>
<path d="M274.232 55.712H269.72V53.36H281.456V55.712H276.896V71H274.232V55.712ZM285.614 71.336L281.054 59.984H283.982L286.334 66.992L286.862 68.696L287.39 66.992L289.862 59.984H292.694L285.926 77.048H283.238L285.614 71.336ZM294.424 59.984H296.92V62.024C297.8 60.472 299.176 59.696 301.048 59.696C302.6 59.696 303.856 60.192 304.816 61.184C305.776 62.16 306.256 63.576 306.256 65.432C306.256 66.584 306.016 67.6 305.536 68.48C305.072 69.36 304.432 70.04 303.616 70.52C302.816 71 301.92 71.24 300.928 71.24C300 71.24 299.192 71.08 298.504 70.76C297.832 70.424 297.304 69.952 296.92 69.344L296.944 76.832H294.424V59.984ZM300.328 69.056C301.368 69.056 302.168 68.728 302.728 68.072C303.288 67.4 303.568 66.544 303.568 65.504C303.568 64.416 303.288 63.552 302.728 62.912C302.184 62.256 301.384 61.928 300.328 61.928C299.752 61.928 299.208 62.072 298.696 62.36C298.2 62.632 297.8 63.032 297.496 63.56C297.208 64.072 297.064 64.672 297.064 65.36V65.528C297.064 66.216 297.208 66.832 297.496 67.376C297.8 67.904 298.2 68.32 298.696 68.624C299.192 68.912 299.736 69.056 300.328 69.056ZM314.232 71.24C312.92 71.24 311.824 70.984 310.944 70.472C310.064 69.944 309.416 69.248 309 68.384C308.584 67.504 308.376 66.544 308.376 65.504C308.376 64.336 308.616 63.312 309.096 62.432C309.592 61.552 310.272 60.88 311.136 60.416C312 59.936 312.976 59.696 314.064 59.696C315.76 59.696 317.016 60.168 317.832 61.112C318.664 62.04 319.08 63.352 319.08 65.048C319.08 65.48 319.056 65.928 319.008 66.392H311.088C311.264 67.368 311.608 68.072 312.12 68.504C312.648 68.936 313.376 69.152 314.304 69.152C315.072 69.152 315.704 69.088 316.2 68.96C316.696 68.832 317.152 68.656 317.568 68.432L318.36 70.28C317.96 70.536 317.416 70.76 316.728 70.952C316.04 71.144 315.208 71.24 314.232 71.24ZM316.56 64.592C316.576 63.6 316.36 62.904 315.912 62.504C315.464 62.088 314.824 61.88 313.992 61.88C312.312 61.88 311.344 62.784 311.088 64.592H316.56ZM326.022 71.24C325.062 71.24 324.11 71.072 323.166 70.736C322.222 70.4 321.542 70.024 321.126 69.608L322.398 67.328C322.734 67.632 323.254 67.952 323.958 68.288C324.678 68.608 325.366 68.768 326.022 68.768C326.87 68.768 327.558 68.568 328.086 68.168C328.63 67.768 328.902 67.216 328.902 66.512C328.902 65.968 328.758 65.496 328.47 65.096C328.182 64.696 327.83 64.368 327.414 64.112C326.998 63.84 326.406 63.512 325.638 63.128C324.726 62.68 324.102 62.344 323.766 62.12C322.214 61.08 321.438 59.64 321.438 57.8C321.438 56.28 321.942 55.12 322.95 54.32C323.958 53.504 325.23 53.096 326.766 53.096C328.414 53.096 329.814 53.568 330.966 54.512L329.694 56.696C329.39 56.376 328.958 56.104 328.398 55.88C327.854 55.64 327.27 55.52 326.646 55.52C325.846 55.52 325.214 55.704 324.75 56.072C324.302 56.424 324.078 56.952 324.078 57.656C324.078 58.152 324.222 58.6 324.51 59C324.798 59.384 325.158 59.72 325.59 60.008C326.038 60.296 326.638 60.648 327.39 61.064C328.11 61.464 328.662 61.784 329.046 62.024C329.43 62.248 329.79 62.52 330.126 62.84C330.59 63.256 330.966 63.752 331.254 64.328C331.542 64.904 331.686 65.536 331.686 66.224C331.686 67.296 331.438 68.208 330.942 68.96C330.462 69.712 329.79 70.28 328.926 70.664C328.078 71.048 327.11 71.24 326.022 71.24ZM339.543 71.24C338.455 71.24 337.471 71.008 336.591 70.544C335.727 70.064 335.039 69.384 334.527 68.504C334.015 67.608 333.759 66.56 333.759 65.36C333.759 64.224 333.991 63.232 334.455 62.384C334.935 61.52 335.599 60.856 336.447 60.392C337.311 59.928 338.303 59.696 339.423 59.696C340.271 59.696 340.999 59.808 341.607 60.032C342.231 60.24 342.719 60.504 343.071 60.824L341.919 62.912C341.247 62.24 340.487 61.904 339.639 61.904C338.615 61.904 337.831 62.216 337.287 62.84C336.759 63.464 336.495 64.296 336.495 65.336C336.495 66.52 336.767 67.44 337.311 68.096C337.871 68.752 338.647 69.08 339.639 69.08C340.135 69.08 340.615 69.008 341.079 68.864C341.559 68.72 341.927 68.552 342.183 68.36L343.119 70.184C342.767 70.456 342.271 70.704 341.631 70.928C341.007 71.136 340.311 71.24 339.543 71.24ZM345.515 59.984H348.107V62.144C348.363 61.408 348.779 60.816 349.355 60.368C349.931 59.92 350.587 59.696 351.323 59.696C351.835 59.696 352.187 59.744 352.379 59.84L352.019 62.456C351.875 62.36 351.563 62.312 351.083 62.312C350.331 62.312 349.643 62.552 349.019 63.032C348.411 63.512 348.107 64.28 348.107 65.336V71H345.515V59.984ZM354.404 59.984H357.092V71H354.404V59.984ZM355.724 57.92C355.228 57.92 354.812 57.752 354.476 57.416C354.14 57.08 353.972 56.664 353.972 56.168C353.972 55.72 354.14 55.336 354.476 55.016C354.812 54.696 355.228 54.536 355.724 54.536C356.204 54.536 356.612 54.696 356.948 55.016C357.284 55.336 357.452 55.72 357.452 56.168C357.452 56.664 357.284 57.08 356.948 57.416C356.628 57.752 356.22 57.92 355.724 57.92ZM360.729 59.984H363.225V62.024C364.105 60.472 365.481 59.696 367.353 59.696C368.905 59.696 370.161 60.192 371.121 61.184C372.081 62.16 372.561 63.576 372.561 65.432C372.561 66.584 372.321 67.6 371.841 68.48C371.377 69.36 370.737 70.04 369.921 70.52C369.121 71 368.225 71.24 367.233 71.24C366.305 71.24 365.497 71.08 364.809 70.76C364.137 70.424 363.609 69.952 363.225 69.344L363.249 76.832H360.729V59.984ZM366.633 69.056C367.673 69.056 368.473 68.728 369.033 68.072C369.593 67.4 369.873 66.544 369.873 65.504C369.873 64.416 369.593 63.552 369.033 62.912C368.489 62.256 367.689 61.928 366.633 61.928C366.057 61.928 365.513 62.072 365.001 62.36C364.505 62.632 364.105 63.032 363.801 63.56C363.513 64.072 363.369 64.672 363.369 65.36V65.528C363.369 66.216 363.513 66.832 363.801 67.376C364.105 67.904 364.505 68.32 365.001 68.624C365.497 68.912 366.041 69.056 366.633 69.056ZM376.289 62.096H374.345V59.984H376.289V55.496L378.905 54.92V59.984H381.449V62.096H378.905V71H376.289V62.096Z" fill="#525252"/>
</svg>
